<svg width="335" height="100" viewBox="0 0 335 100" fill="none" xmlns="http://www.w3.org/2000/svg">
<rect width="335" height="100" fill="black"/>
<path d="M72.392 31.588L62.184 73H48.96L45.016 54.962C44.9387 54.614 44.8227 54.034 44.668 53.222C44.5133 52.41 44.32 51.482 44.088 50.438C43.8947 49.394 43.7207 48.3693 43.566 47.364C43.4113 46.3587 43.2953 45.508 43.218 44.812C43.1407 45.508 43.0053 46.3587 42.812 47.364C42.6573 48.3693 42.4833 49.394 42.29 50.438C42.0967 51.482 41.9033 52.41 41.71 53.222C41.5553 54.034 41.4393 54.614 41.362 54.962L37.36 73H24.136L13.87 31.588H24.658L29.182 52.352C29.298 52.8547 29.4527 53.5893 29.646 54.556C29.8393 55.484 30.0327 56.4893 30.226 57.572C30.458 58.6547 30.6707 59.718 30.864 60.762C31.0573 61.7673 31.1927 62.618 31.27 63.314C31.4247 62.154 31.618 60.82 31.85 59.312C32.1207 57.804 32.4107 56.296 32.72 54.788C33.0293 53.2413 33.3193 51.8107 33.59 50.496C33.8993 49.1813 34.1507 48.0987 34.344 47.248L37.998 31.588H48.38L51.918 47.248C52.1113 48.06 52.3433 49.1427 52.614 50.496C52.9233 51.8107 53.2327 53.2413 53.542 54.788C53.8513 56.3347 54.1413 57.862 54.412 59.37C54.6827 60.878 54.876 62.1927 54.992 63.314C55.108 62.3473 55.3013 61.1487 55.572 59.718C55.8427 58.2873 56.1133 56.8953 56.384 55.542C56.6547 54.15 56.8673 53.106 57.022 52.41L61.604 31.588H72.392ZM91.6208 40.346C95.6808 40.346 98.8515 41.3513 101.133 43.362C103.414 45.3727 104.555 48.234 104.555 51.946V73H96.8988L94.7528 68.766H94.5208C93.6315 69.8873 92.7035 70.8153 91.7368 71.55C90.8088 72.246 89.7261 72.7487 88.4888 73.058C87.2515 73.406 85.7435 73.58 83.9648 73.58C82.1088 73.58 80.4461 73.2127 78.9768 72.478C77.5075 71.7047 76.3475 70.564 75.4968 69.056C74.6461 67.5093 74.2208 65.5567 74.2208 63.198C74.2208 59.7567 75.4001 57.2047 77.7588 55.542C80.1561 53.8793 83.6168 52.9513 88.1408 52.758L93.4768 52.584V52.12C93.4768 50.6893 93.1288 49.684 92.4328 49.104C91.7368 48.4853 90.7895 48.176 89.5908 48.176C88.3148 48.176 86.9035 48.408 85.3568 48.872C83.8101 49.2973 82.2441 49.858 80.6588 50.554L77.4688 43.246C79.3248 42.2793 81.4128 41.564 83.7328 41.1C86.0915 40.5973 88.7208 40.346 91.6208 40.346ZM90.9828 58.79C88.9721 58.8673 87.5415 59.2347 86.6908 59.892C85.8788 60.5107 85.4728 61.4 85.4728 62.56C85.4728 63.6427 85.7628 64.4547 86.3428 64.996C86.9228 65.4987 87.6961 65.75 88.6628 65.75C90.0161 65.75 91.1568 65.3247 92.0848 64.474C93.0515 63.6233 93.5348 62.5213 93.5348 61.168V58.674L90.9828 58.79ZM108.212 40.926H119.87L125.322 59.312C125.399 59.5827 125.476 59.9113 125.554 60.298C125.631 60.6847 125.689 61.0907 125.728 61.516C125.805 61.9413 125.844 62.3667 125.844 62.792H126.076C126.153 62.0187 126.25 61.3613 126.366 60.82C126.52 60.24 126.656 59.7567 126.772 59.37L132.34 40.926H143.65L130.948 75.03C129.981 77.6207 128.84 79.8053 127.526 81.584C126.25 83.3627 124.664 84.6967 122.77 85.586C120.875 86.4753 118.516 86.92 115.694 86.92C114.688 86.92 113.818 86.862 113.084 86.746C112.349 86.6687 111.711 86.572 111.17 86.456V77.756C111.595 77.8333 112.098 77.9107 112.678 77.988C113.296 78.0653 113.934 78.104 114.592 78.104C115.829 78.104 116.815 77.8527 117.55 77.35C118.323 76.8473 118.961 76.19 119.464 75.378C119.966 74.6047 120.392 73.754 120.74 72.826L120.856 72.536L108.212 40.926ZM181.472 73H170.278V40.752H160.186V31.588H191.564V40.752H181.472V73ZM223.378 56.876C223.378 59.544 223.01 61.922 222.276 64.01C221.541 66.098 220.478 67.8573 219.086 69.288C217.694 70.68 216.012 71.7433 214.04 72.478C212.068 73.2127 209.825 73.58 207.312 73.58C204.992 73.58 202.846 73.2127 200.874 72.478C198.94 71.7433 197.258 70.68 195.828 69.288C194.436 67.8573 193.334 66.098 192.522 64.01C191.748 61.922 191.362 59.544 191.362 56.876C191.362 53.3187 192 50.322 193.276 47.886C194.59 45.4113 196.446 43.536 198.844 42.26C201.241 40.984 204.122 40.346 207.486 40.346C210.579 40.346 213.305 40.984 215.664 42.26C218.061 43.536 219.936 45.4113 221.29 47.886C222.682 50.322 223.378 53.3187 223.378 56.876ZM202.614 56.876C202.614 58.6933 202.768 60.24 203.078 61.516C203.387 62.792 203.89 63.7587 204.586 64.416C205.32 65.0347 206.268 65.344 207.428 65.344C208.588 65.344 209.496 65.0347 210.154 64.416C210.85 63.7587 211.352 62.792 211.662 61.516C211.971 60.24 212.126 58.6933 212.126 56.876C212.126 55.0587 211.971 53.5313 211.662 52.294C211.352 51.0567 210.85 50.1287 210.154 49.51C209.458 48.8913 208.53 48.582 207.37 48.582C205.707 48.582 204.489 49.278 203.716 50.67C202.981 52.062 202.614 54.1307 202.614 56.876ZM256.408 73H245.388V31.588H269.864V40.578H256.408V48.466H268.82V57.456H256.408V73ZM287.152 40.926V73H276.074V40.926H287.152ZM281.642 27.992C283.227 27.992 284.6 28.3207 285.76 28.978C286.958 29.6353 287.558 30.95 287.558 32.922C287.558 34.8167 286.958 36.112 285.76 36.808C284.6 37.4653 283.227 37.794 281.642 37.794C280.018 37.794 278.626 37.4653 277.466 36.808C276.344 36.112 275.784 34.8167 275.784 32.922C275.784 30.95 276.344 29.6353 277.466 28.978C278.626 28.3207 280.018 27.992 281.642 27.992ZM310.595 64.822C311.6 64.822 312.509 64.7253 313.321 64.532C314.171 64.3 315.041 64.0293 315.931 63.72V71.782C314.732 72.2847 313.456 72.71 312.103 73.058C310.749 73.406 309.029 73.58 306.941 73.58C304.853 73.58 303.016 73.2513 301.431 72.594C299.884 71.9367 298.666 70.8153 297.777 69.23C296.887 67.606 296.443 65.344 296.443 62.444V49.22H292.557V44.696L297.487 41.216L300.329 34.488H307.579V40.926H315.467V49.22H307.579V61.69C307.579 62.734 307.83 63.5267 308.333 64.068C308.874 64.5707 309.628 64.822 310.595 64.822Z" fill="white"/>
</svg>
