<svg width="200" height="200" viewBox="0 0 200 200" fill="none" xmlns="http://www.w3.org/2000/svg">
<rect width="200" height="200" fill="black"/>
<path d="M72.392 81.588L62.184 123H48.96L45.016 104.962C44.9387 104.614 44.8227 104.034 44.668 103.222C44.5133 102.41 44.32 101.482 44.088 100.438C43.8947 99.394 43.7207 98.3693 43.566 97.364C43.4113 96.3587 43.2953 95.508 43.218 94.812C43.1407 95.508 43.0053 96.3587 42.812 97.364C42.6573 98.3693 42.4833 99.394 42.29 100.438C42.0967 101.482 41.9033 102.41 41.71 103.222C41.5553 104.034 41.4393 104.614 41.362 104.962L37.36 123H24.136L13.87 81.588H24.658L29.182 102.352C29.298 102.855 29.4527 103.589 29.646 104.556C29.8393 105.484 30.0327 106.489 30.226 107.572C30.458 108.655 30.6707 109.718 30.864 110.762C31.0573 111.767 31.1927 112.618 31.27 113.314C31.4247 112.154 31.618 110.82 31.85 109.312C32.1207 107.804 32.4107 106.296 32.72 104.788C33.0293 103.241 33.3193 101.811 33.59 100.496C33.8993 99.1813 34.1507 98.0987 34.344 97.248L37.998 81.588H48.38L51.918 97.248C52.1113 98.06 52.3433 99.1427 52.614 100.496C52.9233 101.811 53.2327 103.241 53.542 104.788C53.8513 106.335 54.1413 107.862 54.412 109.37C54.6827 110.878 54.876 112.193 54.992 113.314C55.108 112.347 55.3013 111.149 55.572 109.718C55.8427 108.287 56.1133 106.895 56.384 105.542C56.6547 104.15 56.8673 103.106 57.022 102.41L61.604 81.588H72.392ZM96.0016 123H84.8076V90.752H74.7156V81.588H106.094V90.752H96.0016V123ZM123.019 123H111.999V81.588H136.475V90.578H123.019V98.466H135.431V107.456H123.019V123ZM153.763 90.926V123H142.685V90.926H153.763ZM148.253 77.992C149.838 77.992 151.211 78.3207 152.371 78.978C153.569 79.6353 154.169 80.95 154.169 82.922C154.169 84.8167 153.569 86.112 152.371 86.808C151.211 87.4653 149.838 87.794 148.253 87.794C146.629 87.794 145.237 87.4653 144.077 86.808C142.955 86.112 142.395 84.8167 142.395 82.922C142.395 80.95 142.955 79.6353 144.077 78.978C145.237 78.3207 146.629 77.992 148.253 77.992ZM177.206 114.822C178.211 114.822 179.12 114.725 179.932 114.532C180.783 114.3 181.653 114.029 182.542 113.72V121.782C181.343 122.285 180.067 122.71 178.714 123.058C177.361 123.406 175.64 123.58 173.552 123.58C171.464 123.58 169.627 123.251 168.042 122.594C166.495 121.937 165.277 120.815 164.388 119.23C163.499 117.606 163.054 115.344 163.054 112.444V99.22H159.168V94.696L164.098 91.216L166.94 84.488H174.19V90.926H182.078V99.22H174.19V111.69C174.19 112.734 174.441 113.527 174.944 114.068C175.485 114.571 176.239 114.822 177.206 114.822Z" fill="white"/>
</svg>
