<svg width="182" height="42" viewBox="0 0 182 42" fill="none" xmlns="http://www.w3.org/2000/svg">
<g filter="url(#filter0_d_4_48)">
<rect x="1" y="1" width="180" height="40" rx="2" fill="white"/>
<rect x="2" y="2" width="38" height="38" rx="1" fill="white"/>
<path fill-rule="evenodd" clip-rule="evenodd" d="M29.208 21.1943C29.208 20.5881 29.1536 20.0051 29.0525 19.4455H21V22.7528H25.6015C25.4032 23.8215 24.8009 24.727 23.8953 25.3333V27.4786H26.6585C28.2753 25.9901 29.208 23.7982 29.208 21.1943Z" fill="#4285F4"/>
<path fill-rule="evenodd" clip-rule="evenodd" d="M21 29.55C23.3085 29.55 25.2439 28.7844 26.6585 27.4786L23.8953 25.3333C23.1297 25.8463 22.1504 26.1494 21 26.1494C18.7731 26.1494 16.8882 24.6454 16.2159 22.6245H13.3594V24.8397C14.7663 27.634 17.6577 29.55 21 29.55Z" fill="#34A853"/>
<path fill-rule="evenodd" clip-rule="evenodd" d="M16.2159 22.6245C16.0449 22.1115 15.9477 21.5635 15.9477 21C15.9477 20.4365 16.0449 19.8885 16.2159 19.3755V17.1603H13.3594C12.7804 18.3145 12.45 19.6203 12.45 21C12.45 22.3797 12.7804 23.6855 13.3594 24.8397L16.2159 22.6245Z" fill="#FBBC05"/>
<path fill-rule="evenodd" clip-rule="evenodd" d="M21 15.8506C22.2553 15.8506 23.3823 16.282 24.2684 17.1292L26.7207 14.6769C25.24 13.2972 23.3046 12.45 21 12.45C17.6577 12.45 14.7663 14.366 13.3594 17.1603L16.2159 19.3755C16.8882 17.3546 18.7731 15.8506 21 15.8506Z" fill="#EA4335"/>
<path d="M56.2139 23.4365C56.2139 22.999 56.0589 22.6618 55.749 22.4248C55.4437 22.1878 54.89 21.9486 54.0879 21.707C53.2858 21.4655 52.6478 21.1966 52.1738 20.9004C51.2669 20.3307 50.8135 19.5879 50.8135 18.6719C50.8135 17.8698 51.1393 17.209 51.791 16.6895C52.4473 16.1699 53.2972 15.9102 54.3408 15.9102C55.0335 15.9102 55.651 16.0378 56.1934 16.293C56.7357 16.5482 57.1618 16.9128 57.4717 17.3867C57.7816 17.8561 57.9365 18.3779 57.9365 18.9521H56.2139C56.2139 18.4326 56.0498 18.027 55.7217 17.7354C55.3981 17.4391 54.9333 17.291 54.3271 17.291C53.762 17.291 53.3223 17.4118 53.0078 17.6533C52.6979 17.8949 52.543 18.2321 52.543 18.665C52.543 19.0296 52.7116 19.335 53.0488 19.5811C53.3861 19.8226 53.9421 20.0596 54.7168 20.292C55.4915 20.5199 56.1136 20.7819 56.583 21.0781C57.0524 21.3698 57.3965 21.707 57.6152 22.0898C57.834 22.4681 57.9434 22.9124 57.9434 23.4229C57.9434 24.2523 57.6243 24.9131 56.9863 25.4053C56.3529 25.8929 55.4915 26.1367 54.4023 26.1367C53.6823 26.1367 53.0192 26.0046 52.4131 25.7402C51.8115 25.4714 51.3421 25.1022 51.0049 24.6328C50.6722 24.1634 50.5059 23.6165 50.5059 22.9922H52.2354C52.2354 23.5573 52.4222 23.9948 52.7959 24.3047C53.1696 24.6146 53.7051 24.7695 54.4023 24.7695C55.0039 24.7695 55.4551 24.6488 55.7559 24.4072C56.0612 24.1611 56.2139 23.8376 56.2139 23.4365ZM61.0674 26H59.4062V18.6035H61.0674V26ZM59.3037 16.6826C59.3037 16.4274 59.3835 16.2155 59.543 16.0469C59.707 15.8783 59.9395 15.7939 60.2402 15.7939C60.541 15.7939 60.7734 15.8783 60.9375 16.0469C61.1016 16.2155 61.1836 16.4274 61.1836 16.6826C61.1836 16.9333 61.1016 17.1429 60.9375 17.3115C60.7734 17.4756 60.541 17.5576 60.2402 17.5576C59.9395 17.5576 59.707 17.4756 59.543 17.3115C59.3835 17.1429 59.3037 16.9333 59.3037 16.6826ZM62.5918 22.2471C62.5918 21.0986 62.8607 20.1826 63.3984 19.499C63.9408 18.8109 64.6585 18.4668 65.5518 18.4668C66.3949 18.4668 67.0579 18.7607 67.541 19.3486L67.6162 18.6035H69.1133V25.7744C69.1133 26.7451 68.8102 27.5107 68.2041 28.0713C67.6025 28.6318 66.7891 28.9121 65.7637 28.9121C65.2214 28.9121 64.6904 28.7982 64.1709 28.5703C63.6559 28.347 63.264 28.0531 62.9951 27.6885L63.7812 26.6904C64.2917 27.2965 64.9206 27.5996 65.668 27.5996C66.2194 27.5996 66.6546 27.4492 66.9736 27.1484C67.2926 26.8522 67.4521 26.4147 67.4521 25.8359V25.3369C66.9736 25.8701 66.3356 26.1367 65.5381 26.1367C64.6722 26.1367 63.9635 25.7926 63.4121 25.1045C62.8652 24.4163 62.5918 23.4639 62.5918 22.2471ZM64.2461 22.3906C64.2461 23.1335 64.3965 23.7191 64.6973 24.1475C65.0026 24.5713 65.4242 24.7832 65.9619 24.7832C66.6318 24.7832 67.1286 24.4961 67.4521 23.9219V20.668C67.1377 20.1074 66.6455 19.8271 65.9756 19.8271C65.4287 19.8271 65.0026 20.0436 64.6973 20.4766C64.3965 20.9095 64.2461 21.5475 64.2461 22.3906ZM72.3672 18.6035L72.415 19.458C72.9619 18.7972 73.6797 18.4668 74.5684 18.4668C76.1087 18.4668 76.8926 19.3486 76.9199 21.1123V26H75.2588V21.208C75.2588 20.7386 75.1562 20.3923 74.9512 20.1689C74.7507 19.9411 74.4202 19.8271 73.96 19.8271C73.29 19.8271 72.791 20.1302 72.4629 20.7363V26H70.8018V18.6035H72.3672ZM83.8721 26H82.2109V18.6035H83.8721V26ZM82.1084 16.6826C82.1084 16.4274 82.1882 16.2155 82.3477 16.0469C82.5117 15.8783 82.7441 15.7939 83.0449 15.7939C83.3457 15.7939 83.5781 15.8783 83.7422 16.0469C83.9062 16.2155 83.9883 16.4274 83.9883 16.6826C83.9883 16.9333 83.9062 17.1429 83.7422 17.3115C83.5781 17.4756 83.3457 17.5576 83.0449 17.5576C82.7441 17.5576 82.5117 17.4756 82.3477 17.3115C82.1882 17.1429 82.1084 16.9333 82.1084 16.6826ZM87.2285 18.6035L87.2764 19.458C87.8232 18.7972 88.541 18.4668 89.4297 18.4668C90.9701 18.4668 91.7539 19.3486 91.7812 21.1123V26H90.1201V21.208C90.1201 20.7386 90.0176 20.3923 89.8125 20.1689C89.612 19.9411 89.2816 19.8271 88.8213 19.8271C88.1514 19.8271 87.6523 20.1302 87.3242 20.7363V26H85.6631V18.6035H87.2285ZM103.464 23.71L104.64 18.6035H106.26L104.243 26H102.876L101.29 20.9209L99.7314 26H98.3643L96.3408 18.6035H97.9609L99.1572 23.6553L100.675 18.6035H101.926L103.464 23.71ZM109.138 26H107.477V18.6035H109.138V26ZM107.374 16.6826C107.374 16.4274 107.454 16.2155 107.613 16.0469C107.777 15.8783 108.01 15.7939 108.311 15.7939C108.611 15.7939 108.844 15.8783 109.008 16.0469C109.172 16.2155 109.254 16.4274 109.254 16.6826C109.254 16.9333 109.172 17.1429 109.008 17.3115C108.844 17.4756 108.611 17.5576 108.311 17.5576C108.01 17.5576 107.777 17.4756 107.613 17.3115C107.454 17.1429 107.374 16.9333 107.374 16.6826ZM113.034 16.8057V18.6035H114.34V19.834H113.034V23.9629C113.034 24.2454 113.089 24.4505 113.198 24.5781C113.312 24.7012 113.513 24.7627 113.8 24.7627C113.991 24.7627 114.185 24.7399 114.381 24.6943V25.9795C114.003 26.0843 113.638 26.1367 113.287 26.1367C112.011 26.1367 111.373 25.4326 111.373 24.0244V19.834H110.156V18.6035H111.373V16.8057H113.034ZM117.252 19.4102C117.794 18.7812 118.48 18.4668 119.31 18.4668C120.886 18.4668 121.686 19.3669 121.709 21.167V26H120.048V21.2285C120.048 20.7181 119.936 20.3581 119.713 20.1484C119.494 19.9342 119.171 19.8271 118.742 19.8271C118.077 19.8271 117.58 20.1234 117.252 20.7158V26H115.591V15.5H117.252V19.4102ZM134.67 24.708C134.31 25.1774 133.811 25.5329 133.173 25.7744C132.535 26.016 131.81 26.1367 130.999 26.1367C130.165 26.1367 129.427 25.9476 128.784 25.5693C128.142 25.1911 127.645 24.651 127.294 23.9492C126.948 23.2428 126.768 22.4202 126.754 21.4814V20.7021C126.754 19.1982 127.114 18.0247 127.834 17.1816C128.554 16.334 129.559 15.9102 130.849 15.9102C131.956 15.9102 132.836 16.1836 133.487 16.7305C134.139 17.2773 134.531 18.0658 134.663 19.0957H132.968C132.776 17.8971 132.081 17.2979 130.883 17.2979C130.108 17.2979 129.518 17.5781 129.112 18.1387C128.711 18.6947 128.504 19.5127 128.49 20.5928V21.3584C128.49 22.4339 128.716 23.2702 129.167 23.8672C129.623 24.4596 130.254 24.7559 131.061 24.7559C131.945 24.7559 132.574 24.5553 132.947 24.1543V22.2061H130.896V20.8936H134.67V24.708ZM136.099 22.2334C136.099 21.5088 136.242 20.8571 136.529 20.2783C136.816 19.695 137.22 19.2484 137.739 18.9385C138.259 18.624 138.856 18.4668 139.53 18.4668C140.528 18.4668 141.337 18.7881 141.957 19.4307C142.581 20.0732 142.919 20.9255 142.969 21.9873L142.976 22.377C142.976 23.1061 142.834 23.7578 142.552 24.332C142.274 24.9062 141.873 25.3506 141.349 25.665C140.829 25.9795 140.228 26.1367 139.544 26.1367C138.5 26.1367 137.664 25.7904 137.035 25.0977C136.411 24.4004 136.099 23.473 136.099 22.3154V22.2334ZM137.76 22.377C137.76 23.138 137.917 23.735 138.231 24.168C138.546 24.5964 138.983 24.8105 139.544 24.8105C140.104 24.8105 140.54 24.5918 140.85 24.1543C141.164 23.7168 141.321 23.0765 141.321 22.2334C141.321 21.486 141.16 20.8936 140.836 20.4561C140.517 20.0186 140.082 19.7998 139.53 19.7998C138.988 19.7998 138.557 20.0163 138.238 20.4492C137.919 20.8776 137.76 21.5202 137.76 22.377ZM144.069 22.2334C144.069 21.5088 144.213 20.8571 144.5 20.2783C144.787 19.695 145.19 19.2484 145.71 18.9385C146.229 18.624 146.826 18.4668 147.501 18.4668C148.499 18.4668 149.308 18.7881 149.928 19.4307C150.552 20.0732 150.889 20.9255 150.939 21.9873L150.946 22.377C150.946 23.1061 150.805 23.7578 150.522 24.332C150.244 24.9062 149.843 25.3506 149.319 25.665C148.8 25.9795 148.198 26.1367 147.515 26.1367C146.471 26.1367 145.635 25.7904 145.006 25.0977C144.382 24.4004 144.069 23.473 144.069 22.3154V22.2334ZM145.73 22.377C145.73 23.138 145.888 23.735 146.202 24.168C146.517 24.5964 146.954 24.8105 147.515 24.8105C148.075 24.8105 148.51 24.5918 148.82 24.1543C149.135 23.7168 149.292 23.0765 149.292 22.2334C149.292 21.486 149.13 20.8936 148.807 20.4561C148.488 20.0186 148.052 19.7998 147.501 19.7998C146.959 19.7998 146.528 20.0163 146.209 20.4492C145.89 20.8776 145.73 21.5202 145.73 22.377ZM152.061 22.2471C152.061 21.0986 152.329 20.1826 152.867 19.499C153.41 18.8109 154.127 18.4668 155.021 18.4668C155.864 18.4668 156.527 18.7607 157.01 19.3486L157.085 18.6035H158.582V25.7744C158.582 26.7451 158.279 27.5107 157.673 28.0713C157.071 28.6318 156.258 28.9121 155.232 28.9121C154.69 28.9121 154.159 28.7982 153.64 28.5703C153.125 28.347 152.733 28.0531 152.464 27.6885L153.25 26.6904C153.76 27.2965 154.389 27.5996 155.137 27.5996C155.688 27.5996 156.123 27.4492 156.442 27.1484C156.761 26.8522 156.921 26.4147 156.921 25.8359V25.3369C156.442 25.8701 155.804 26.1367 155.007 26.1367C154.141 26.1367 153.432 25.7926 152.881 25.1045C152.334 24.4163 152.061 23.4639 152.061 22.2471ZM153.715 22.3906C153.715 23.1335 153.865 23.7191 154.166 24.1475C154.471 24.5713 154.893 24.7832 155.431 24.7832C156.101 24.7832 156.597 24.4961 156.921 23.9219V20.668C156.606 20.1074 156.114 19.8271 155.444 19.8271C154.897 19.8271 154.471 20.0436 154.166 20.4766C153.865 20.9095 153.715 21.5475 153.715 22.3906ZM162.062 26H160.4V15.5H162.062V26ZM167.134 26.1367C166.081 26.1367 165.227 25.8063 164.57 25.1455C163.919 24.4801 163.593 23.596 163.593 22.4932V22.2881C163.593 21.5498 163.734 20.8913 164.017 20.3125C164.304 19.7292 164.705 19.2757 165.22 18.9521C165.735 18.6286 166.309 18.4668 166.942 18.4668C167.95 18.4668 168.727 18.7881 169.273 19.4307C169.825 20.0732 170.101 20.9824 170.101 22.1582V22.8281H165.268C165.318 23.4388 165.521 23.9219 165.876 24.2773C166.236 24.6328 166.687 24.8105 167.229 24.8105C167.991 24.8105 168.61 24.5029 169.089 23.8877L169.984 24.7422C169.688 25.1842 169.292 25.5283 168.795 25.7744C168.303 26.016 167.749 26.1367 167.134 26.1367ZM166.936 19.7998C166.48 19.7998 166.111 19.9593 165.828 20.2783C165.55 20.5973 165.372 21.0417 165.295 21.6113H168.46V21.4883C168.424 20.9323 168.275 20.513 168.016 20.2305C167.756 19.9434 167.396 19.7998 166.936 19.7998Z" fill="#757575"/>
</g>
<defs>
<filter id="filter0_d_4_48" x="0" y="0" width="182" height="42" filterUnits="userSpaceOnUse" color-interpolation-filters="sRGB">
<feFlood flood-opacity="0" result="BackgroundImageFix"/>
<feColorMatrix in="SourceAlpha" type="matrix" values="0 0 0 0 0 0 0 0 0 0 0 0 0 0 0 0 0 0 127 0" result="hardAlpha"/>
<feOffset/>
<feGaussianBlur stdDeviation="0.5"/>
<feColorMatrix type="matrix" values="0 0 0 0 0 0 0 0 0 0 0 0 0 0 0 0 0 0 0.084 0"/>
<feBlend mode="normal" in2="BackgroundImageFix" result="effect1_dropShadow_4_48"/>
<feBlend mode="normal" in="SourceGraphic" in2="effect1_dropShadow_4_48" result="shape"/>
</filter>
</defs>
</svg>
